<?xml version="1.0" encoding="utf-8"?>
<!-- Generator: Adobe Illustrator 16.0.0, SVG Export Plug-In . SVG Version: 6.00 Build 0)  -->
<!DOCTYPE svg PUBLIC "-//W3C//DTD SVG 1.1//EN" "http://www.w3.org/Graphics/SVG/1.1/DTD/svg11.dtd">
<svg version="1.1" id="Layer_1" xmlns="http://www.w3.org/2000/svg" xmlns:xlink="http://www.w3.org/1999/xlink" x="0px" y="0px"
	 width="480px" height="376px" viewBox="0 0 480 376" enable-background="new 0 0 480 376" xml:space="preserve">
<path fill="#FFFFFF" stroke="#000000" stroke-width="0.1768" d="M221.241,193l-93.036-96.94l69.777-72.705l46.518,48.47
	L221.241,96.06l-23.259-24.235L174.723,96.06l69.777,72.706L221.241,193z M174.723,144.53l-69.777,72.706L81.688,193l23.258-24.235
	L128.206,193l23.259-24.235l-46.518-48.47L35.17,193l69.776,72.706l93.036-96.941L174.723,144.53z M244.5,120.295l23.259-24.235
	l69.777,72.706L314.277,193L244.5,120.295z M197.982,120.295l93.035-96.94l69.777,72.705l-46.518,48.47l-23.26-24.235l23.26-24.235
	l-23.26-24.235l-69.776,72.705L197.982,120.295z M314.277,241.47l69.776-72.705L407.313,193l-23.259,24.235L360.795,193
	l-23.259,24.235l46.518,48.471L453.83,193l-69.776-72.705l-93.036,96.94L314.277,241.47z M244.5,217.235l69.777,72.705
	l-23.26,24.235l-23.259-24.235L244.5,314.176l46.518,48.47l69.777-72.705L267.759,193L244.5,217.235z M267.759,241.47
	l-69.776,72.706l-23.259-24.235l23.259-24.234l-23.259-24.236l-46.518,48.471l69.777,72.705l93.035-96.939L267.759,241.47z
	 M267.759,144.53l23.259,24.235l-69.776,72.705l-23.259-24.234L267.759,144.53z M151.464,217.235L174.723,193l69.777,72.706
	l-23.259,24.234L151.464,217.235z"/>
</svg>
