<?xml version="1.0" encoding="utf-8"?>
<!-- Generator: Adobe Illustrator 16.0.0, SVG Export Plug-In . SVG Version: 6.00 Build 0)  -->
<!DOCTYPE svg PUBLIC "-//W3C//DTD SVG 1.1//EN" "http://www.w3.org/Graphics/SVG/1.1/DTD/svg11.dtd">
<svg version="1.1" id="Layer_1" xmlns="http://www.w3.org/2000/svg" xmlns:xlink="http://www.w3.org/1999/xlink" x="0px" y="0px"
	 width="800px" height="1000px" viewBox="0 0 800 1000" enable-background="new 0 0 800 1000" xml:space="preserve">
<path fill="#FFFFFF" stroke="#000000" stroke-width="0.1768" d="M398.569,553.461l-212.291,210.57L27.744,605.419l106.145-105.286
	l52.845,52.871l-53.073,52.643l52.845,52.871L345.725,500.59L398.569,553.461z M292.424,658.746l158.537,158.612l-53.073,52.643
	l-52.845-52.87l53.072-52.644l-52.845-52.87L239.125,816.902L397.66,975.516l159.22-157.929L345.496,606.104L292.424,658.746z
	 M239.807,500.361l-52.847-52.869l159.218-157.929l52.847,52.871L239.807,500.361z M239.58,605.875L28.198,394.394l159.218-157.93
	l105.689,105.742l-53.071,52.645l-52.847-52.873l-53.072,52.645l158.535,158.61L239.58,605.875z M504.939,342.662L346.406,184.049
	l53.071-52.641l52.847,52.869l-53.073,52.643l52.845,52.871l106.148-105.286L399.707,25.896L240.489,183.821l211.38,211.486
	L504.939,342.662z M451.643,500.817L610.858,342.89l52.847,52.873l-53.074,52.644l52.845,52.867l106.146-105.282L611.087,237.376
	L398.796,447.949L451.643,500.817z M504.712,448.178l158.537,158.609l-53.073,52.644l-52.842-52.871l-53.076,52.643l105.691,105.742
	l159.217-157.929l-211.378-211.48L504.712,448.178z M292.878,447.721l53.073-52.643l158.534,158.61l-53.072,52.643L292.878,447.721z
	 M451.188,711.845l-52.845-52.87l159.22-157.93l52.843,52.872L451.188,711.845z"/>
</svg>
