<?xml version="1.0" standalone="no"?>
<!DOCTYPE svg PUBLIC "-//W3C//DTD SVG 20010904//EN"
 "http://www.w3.org/TR/2001/REC-SVG-20010904/DTD/svg10.dtd">
<svg version="1.0" xmlns="http://www.w3.org/2000/svg"
 width="248.000000pt" height="242.000000pt" viewBox="0 0 248.000000 242.000000"
 preserveAspectRatio="xMidYMid meet">

<g transform="translate(0.000000,242.000000) scale(0.100000,-0.100000)"
fill="#000000" stroke="none">
<path d="M1100 1835 l-125 -125 83 -83 c45 -45 82 -87 82 -93 0 -5 -16 -25
-35 -44 l-35 -34 -83 82 c-45 45 -87 82 -92 82 -16 0 -255 -244 -255 -260 0
-8 35 -50 77 -92 l78 -78 -78 -78 c-45 -45 -77 -86 -77 -98 0 -12 47 -66 125
-144 l126 -124 82 82 c45 45 87 82 93 82 13 0 74 -63 74 -76 0 -5 -31 -38 -70
-73 -109 -97 -111 -83 31 -227 68 -68 130 -124 139 -124 16 0 260 239 260 255
0 5 -36 46 -81 91 l-81 81 32 37 c18 20 37 36 43 36 6 0 48 -36 94 -81 l83
-81 125 119 c69 65 128 126 131 137 5 14 -13 38 -70 95 -42 42 -76 81 -76 86
0 4 34 43 75 86 41 42 75 83 75 91 0 15 -240 258 -255 258 -5 0 -47 -37 -92
-82 l-83 -82 -40 39 -40 39 80 81 c44 44 80 87 80 95 0 23 -231 250 -255 250
-13 0 -67 -47 -145 -125z m250 -20 l105 -105 -70 -70 c-38 -39 -74 -69 -79
-67 -5 2 -14 11 -20 20 -9 13 -1 26 39 67 l49 50 -59 60 c-33 33 -66 60 -74
60 -20 0 -121 -100 -121 -120 0 -8 59 -74 131 -146 93 -93 130 -137 126 -148
-4 -9 -14 -16 -24 -16 -10 0 -88 70 -173 155 l-155 155 105 105 c58 58 107
105 110 105 3 0 52 -47 110 -105z m-60 -70 l34 -35 -34 -35 c-19 -19 -39 -35
-45 -35 -6 0 -26 16 -45 35 l-34 35 34 35 c19 19 39 35 45 35 6 0 26 -16 45
-35z m-326 -244 c47 -47 67 -74 63 -85 -11 -28 -40 -18 -88 30 l-48 47 -60
-58 c-34 -32 -61 -65 -61 -74 0 -9 60 -75 132 -148 124 -124 131 -134 116
-149 -16 -16 -21 -13 -85 44 -37 33 -110 104 -162 157 l-95 96 105 105 c57 57
106 104 109 104 3 0 36 -31 74 -69z m734 -30 c56 -54 102 -102 102 -107 0 -5
-31 -41 -69 -78 -60 -59 -72 -68 -85 -56 -24 19 -20 30 31 82 l48 48 -67 67
-67 67 -140 -139 c-120 -118 -142 -136 -156 -125 -8 7 -15 17 -15 24 0 10 300
316 310 316 3 0 51 -45 108 -99z m-497 13 c11 -13 -5 -33 -114 -142 -126 -125
-126 -126 -147 -107 l-21 19 123 123 c67 68 128 123 134 123 6 0 17 -7 25 -16z
m-267 -83 l38 -38 -32 -37 c-18 -20 -37 -36 -43 -36 -15 0 -77 61 -77 76 0 9
42 49 75 74 1 0 18 -17 39 -39z m356 -76 c-19 -19 -38 -35 -44 -35 -12 0 -76
60 -76 72 0 4 17 23 38 42 l37 35 40 -39 39 -40 -34 -35z m350 0 c-19 -19 -38
-35 -44 -35 -13 0 -76 61 -76 73 0 6 17 25 38 43 l37 33 40 -39 39 -40 -34
-35z m-267 -233 c11 -17 2 -42 -15 -42 -7 0 -69 53 -138 119 l-125 118 19 22
19 21 116 -112 c64 -62 120 -119 124 -126z m426 -76 c4 -10 -189 -206 -204
-206 -6 0 -42 32 -80 71 -67 67 -69 71 -51 85 11 8 23 14 26 14 3 0 26 -20 50
-45 24 -25 49 -45 55 -45 6 0 37 26 69 59 48 49 56 62 48 77 -6 11 -67 75
-136 143 -121 118 -126 124 -110 142 17 18 23 13 173 -133 86 -84 158 -157
160 -162z m-692 212 c18 -18 33 -37 33 -44 0 -10 -64 -74 -73 -74 -2 0 -20 17
-41 39 l-38 38 32 37 c18 20 37 36 43 36 6 0 26 -14 44 -32z m350 0 c18 -18
33 -37 33 -43 0 -6 -16 -26 -35 -45 l-35 -34 -39 38 -40 39 31 38 c17 22 36
39 42 39 5 0 25 -14 43 -32z m-607 -93 c11 -14 6 -23 -33 -63 -26 -26 -47 -55
-47 -63 0 -19 103 -119 122 -119 7 0 72 59 143 130 71 72 135 130 141 130 6 0
17 -7 25 -16 11 -13 -9 -36 -142 -170 -84 -85 -161 -154 -170 -154 -8 0 -60
45 -114 100 l-99 101 69 69 c38 39 75 70 81 70 6 0 17 -7 24 -15z m701 -1 c11
-13 -5 -32 -112 -140 -68 -68 -128 -123 -133 -121 -5 2 -14 11 -20 20 -9 14 9
37 109 137 66 66 125 120 131 120 6 0 17 -7 25 -16z m-614 -155 c-18 -21 -36
-39 -42 -39 -13 0 -75 62 -75 76 0 7 16 26 36 44 l37 32 38 -38 38 -37 -32
-38z m353 -4 c-19 -19 -38 -35 -44 -35 -14 0 -76 62 -76 76 0 7 16 26 36 44
l37 32 41 -41 40 -41 -34 -35z m350 0 c-19 -19 -38 -35 -44 -35 -13 0 -76 61
-76 73 0 6 17 25 38 43 l37 33 40 -39 39 -40 -34 -35z m-297 -195 c59 -57 107
-109 107 -115 0 -13 -192 -205 -205 -205 -6 0 -56 46 -113 103 l-102 102 73
73 c73 73 73 73 92 52 18 -20 18 -21 -28 -68 -26 -26 -47 -52 -47 -57 0 -13
112 -125 125 -125 13 0 125 112 125 124 0 5 -62 72 -137 148 -131 132 -137
140 -118 154 22 16 17 20 228 -186z m-60 -78 l37 -38 -40 -39 -40 -39 -35 34
c-19 19 -35 38 -35 44 0 11 60 76 70 76 3 0 23 -17 43 -38z"/>
</g>
</svg>
